# xmcd
#
# Track frame offsets:
#	150
#	17736
#	34652
#	47987
#	64241
#	79820
#	94117
#	106180
#	120439
#	135188
#	151935
#	164619
#	180276
#	196899
#	213568
#	228321
#	244292
#	260227
#	277274
#	292965
#
# Disc length: 4156 seconds
#
# Revision: 1
# Processed by: cddbd v1.5.2PL0 Copyright (c) Steve Scherf et al.
# Submitted via: dBpowerAMP V4.0
#
DISCID=1a103a14
DTITLE=Various Artist - Hott Country Volume 254 Can
DYEAR=2017
DGENRE=Country
TTITLE0=Tim McGraw and Faith Hill - Speak To A Girl
TTITLE1=Thomas Rhett ft. Maren Morris - Craving You
TTITLE2=Old Dominion - No Such Thing As A Broken Heart
TTITLE3=Eric Church - Round Here Buzz
TTITLE4=Chad Brownlee - Might As Well Be Me
TTITLE5=Tim Hicks - Slide Over
TTITLE6=Canaan Smith - Like You That Way
TTITLE7=James Barker Band - Chills
TTITLE8=Maren Morris - I Could Use A Love Song
TTITLE9=Aaron Goodvin - Lonely Drum
TTITLE10=Little Big Town - Happy People
TTITLE11=A Thousand Horses - Preachin' To The Choir
TTITLE12=Delta Rae - A Long And Happy Life
TTITLE13=Road Hammers, The - Crazy About You
TTITLE14=Jacob Davis - What I Wanna Be
TTITLE15=Railers, The - 11:59 (Central Standard Time)
TTITLE16=Garth Brooks - Ask Me How I Know
TTITLE17=Doc Walker - Heart Of The Heartland
TTITLE18=Jerrod Niemann - God Made A Woman
TTITLE19=Charlie Worsham - Cut Your Groove
EXTD=
EXTT0=
EXTT1=
EXTT2=
EXTT3=
EXTT4=
EXTT5=
EXTT6=
EXTT7=
EXTT8=
EXTT9=
EXTT10=
EXTT11=
EXTT12=
EXTT13=
EXTT14=
EXTT15=
EXTT16=
EXTT17=
EXTT18=
EXTT19=
PLAYORDER=
